<svg aria-hidden="true" style="position:absolute;width:0;height:0;overflow:hidden" xmlns="http://www.w3.org/2000/svg">
  <defs>
    <symbol id="icon-benefis1" viewBox="0 0 34 32">
      <path d="M33.967 6.968v1.129a.565.565 0 0 1-.565.565h-1.693v.846a.846.846 0 0 1-.846.846H3.201a.846.846 0 0 1-.846-.846v-.846H.661a.565.565 0 0 1-.565-.565V6.968c0-.234.142-.434.345-.52l.004-.001L16.816.237a.558.558 0 0 1 .435.001l-.004-.001 16.372 6.21a.565.565 0 0 1 .348.521v.001zm-1.692 21.451H1.79c-.935 0-1.693.758-1.693 1.693v1.13c0 .312.253.565.565.565h32.741a.565.565 0 0 0 .565-.565v-1.129c0-.935-.758-1.693-1.693-1.693zM5.742 11.484v13.548h-2.54a.846.846 0 0 0-.846.846v1.411H31.71v-1.411a.846.846 0 0 0-.846-.846h-2.541V11.484h-4.516v13.548h-4.516V11.484h-4.516v13.548h-4.514V11.484H5.742z"/>
    </symbol>
    <symbol id="icon-benefis2" viewBox="0 0 32 32">
      <path d="M22 6a6 6 0 1 0-12 0 6 6 0 0 0 12 0zm-7.401 9.068c-3.708-2.268-9.714-2.894-12.736-3.066C.845 11.944 0 12.719 0 13.695V27.62c0 .896.724 1.643 1.655 1.691 2.729.143 8.251.667 12.066 2.589.585.295 1.28-.107 1.28-.741v-15.38c0-.3-.159-.564-.398-.71l-.004-.002zm15.539-3.065c-3.022.172-9.029.795-12.736 3.066a.85.85 0 0 0-.401.721v15.369c0 .637.697 1.04 1.284.744 3.815-1.92 9.333-2.445 12.061-2.587.931-.048 1.655-.795 1.655-1.691V13.699c0-.976-.847-1.751-1.862-1.693z"/>
    </symbol>
    <symbol id="icon-benefis3" viewBox="0 0 32 32">
      <path d="m31.119 8.881-2.881 2.881a.749.749 0 0 1-1.062 0l-6.938-6.938a.749.749 0 0 1 0-1.062L23.119.881c.544-.542 1.294-.877 2.122-.877s1.578.335 2.122.877l3.756 3.756c.544.542.881 1.293.881 2.122s-.337 1.58-.881 2.122zM17.763 6.237 1.351 22.649.025 30.244a1.501 1.501 0 0 0 1.737 1.737l7.594-1.331 16.412-16.411a.75.75 0 0 0 0-1.064l-6.937-6.938a.758.758 0 0 0-1.07 0zM7.756 21.243a.87.87 0 0 1 0-1.237l9.626-9.626a.87.87 0 0 1 1.237 0 .87.87 0 0 1 0 1.238l-9.625 9.625a.87.87 0 0 1-1.238 0zM5.5 26.501h2.999v2.267l-4.03.707-1.944-1.944.706-4.031H5.5v3z"/>
    </symbol>
    <symbol id="button-icon" viewBox="0 0 24 32">
      <path d="M21.029 17.595 8.277 30.342a2.235 2.235 0 0 1-3.178.001l-2.117-2.117c-.408-.406-.66-.967-.66-1.588s.252-1.182.66-1.588l9.037-9.04-9.037-9.037c-.408-.406-.66-.967-.66-1.588s.252-1.182.66-1.588l2.109-2.141c.406-.409.968-.661 1.589-.661s1.183.253 1.589.661l12.749 12.749c.891.88.891 2.307.011 3.189z"/>
    </symbol>
    <symbol id="icon-facebook" viewBox="0 0 32 32">
      <path d="M31.5 16.343c0-8.562-6.938-15.5-15.5-15.5S.5 7.781.5 16.343c0 7.75 5.625 14.188 13.062 15.312V20.843H9.624v-4.5h3.938v-3.375c0-3.876 2.313-6.063 5.812-6.063 1.751 0 3.501.313 3.501.313v3.813h-1.938c-1.937 0-2.562 1.187-2.562 2.437v2.875h4.312l-.688 4.5h-3.624v10.812C25.812 30.53 31.5 24.093 31.5 16.343z"/>
    </symbol>
    <symbol id="icon-linkedin" viewBox="0 0 32 32">
      <path d="M7.25 32V10.901H.687V32H7.25zM3.933 8.079c2.117 0 3.81-1.764 3.81-3.881 0-2.046-1.694-3.74-3.81-3.74-2.046 0-3.74 1.694-3.74 3.74 0 2.117 1.694 3.881 3.74 3.881zM31.736 32h.071V20.427c0-5.645-1.27-10.02-7.903-10.02-3.175 0-5.292 1.764-6.21 3.387h-.07v-2.893h-6.28V32h6.562V21.556c0-2.752.494-5.363 3.881-5.363s3.458 3.105 3.458 5.575V32h6.492z"/>
    </symbol>
    <symbol id="icon-logo-icon" viewBox="0 0 41 32">
      <path d="M38.196.004c-3.861.219-11.532 1.018-16.268 3.923-.328.2-.513.557-.513.929v25.676c0 .815.89 1.331 1.64.952 4.872-2.457 11.921-3.128 15.405-3.31 1.19-.063 2.115-1.019 2.115-2.164V2.17c0-1.249-1.081-2.24-2.379-2.166zM18.649 3.927C13.913 1.022 6.24.224 2.381.004 1.081-.069.001.921.001 2.17v23.841c0 1.146.925 2.101 2.115 2.164 3.486.183 10.537.854 15.412 3.313.747.378 1.634-.137 1.634-.95V4.837c0-.383-.203-.72-.507-.907l-.005-.003z"/>
    </symbol>
    <symbol id="icon-twitter" viewBox="0 0 37 32">
      <path d="M33.469 8.284c1.458-1.094 2.771-2.406 3.792-3.938a14.363 14.363 0 0 1-4.375 1.167c1.604-.948 2.771-2.406 3.355-4.229a15.87 15.87 0 0 1-4.705 1.875l-.108.02A7.635 7.635 0 0 0 25.856.774h-.045.002-.001a7.655 7.655 0 0 0-7.655 7.655c0 .583.074 1.167.22 1.75A22.202 22.202 0 0 1 2.583 2.194l-.029-.036c-.657 1.094-1.021 2.406-1.021 3.865a7.536 7.536 0 0 0 3.426 6.345c-1.239-.074-2.479-.365-3.499-.948v.073c0 3.719 2.624 6.782 6.124 7.51-.582.146-1.312.292-1.968.292-.511 0-.948-.074-1.459-.146.949 3.062 3.792 5.25 7.147 5.323-2.625 2.043-5.906 3.282-9.479 3.282-.656 0-1.239-.074-1.823-.146 3.355 2.187 7.364 3.427 11.74 3.427 14.073 0 21.729-11.595 21.729-21.729V8.285z"/>
    </symbol>
    <symbol id="icon-youtube" viewBox="0 0 45 32">
      <path d="M43.665 5.831c-.486-1.944-2.027-3.484-3.89-3.97C36.292.889 22.519.889 22.519.889s-13.855 0-17.338.972c-1.862.486-3.403 2.027-3.889 3.97C.32 9.232.32 16.525.32 16.525s0 7.211.972 10.695c.486 1.944 2.025 3.401 3.889 3.889C8.665 32 22.519 32 22.519 32s13.773 0 17.256-.891c1.864-.486 3.404-1.944 3.89-3.889.972-3.484.972-10.695.972-10.695s0-7.291-.972-10.694zM17.982 23.087V9.962l11.505 6.562-11.505 6.562z"/>
    </symbol>
  </defs>
</svg>
